<?xml version="1.0" encoding="utf-8"?>
<!-- Generator: Adobe Illustrator 19.1.0, SVG Export Plug-In . SVG Version: 6.00 Build 0)  -->
<svg version="1.1" xmlns="http://www.w3.org/2000/svg" xmlns:xlink="http://www.w3.org/1999/xlink" x="0px" y="0px"
	 viewBox="0 0 666 369.4" style="enable-background:new 0 0 666 369.4;" xml:space="preserve">
<style type="text/css">
	.st0{fill:#DEDDDD;}
	.st1{fill:none;stroke:#151515;stroke-width:0.5843;stroke-miterlimit:10;}
	.st2{fill:#D3D2D2;}
	.st3{fill:none;stroke:#080708;stroke-width:0.4382;stroke-miterlimit:10;}
	.st4{fill:none;stroke:#282324;stroke-width:0.4382;stroke-miterlimit:10;}
	.st5{fill:#D8D8D8;}
	.st6{fill:#DBD9DA;}
	.st7{font-family:'HelveticaNeue-Light';}
	.st8{font-size:5.1125px;}
	.st9{fill:none;}
	.st10{font-size:4.8203px;}
	.st11{fill:none;stroke:#0D0D0D;stroke-width:0.2921;stroke-miterlimit:10;}
	.st12{fill:#D6D6D6;}
	.st13{fill:none;stroke:#151313;stroke-width:0.2921;stroke-miterlimit:10;}
	.st14{font-size:8.8182px;}
	.st15{font-size:5.8428px;}
	.st16{font-size:4.3821px;}
	.st17{fill:none;stroke:#050606;stroke-width:0.4382;stroke-miterlimit:10;}
</style>
<g id="Layer_2">
	<rect x="12.7" y="11.1" class="st0" width="62.8" height="15.7"/>
	<rect x="82.6" y="11.1" class="st0" width="44.7" height="13.7"/>
	<rect x="133.9" y="11.1" class="st0" width="31.4" height="15.7"/>
	<rect x="171.1" y="11.1" class="st0" width="43.1" height="13.7"/>
	<rect x="220.8" y="13" class="st0" width="45.7" height="11.8"/>
	<rect x="274.3" y="13" class="st0" width="54.9" height="11.8"/>
	<rect x="336" y="13" class="st0" width="61.1" height="11.8"/>
	<rect x="404.3" y="13" class="st0" width="90.5" height="11.8"/>
	<rect x="499.7" y="13" class="st0" width="30" height="11.8"/>
	<rect x="537.2" y="13" class="st0" width="23.8" height="10.1"/>
	<rect x="566" y="13" class="st0" width="88.2" height="10.1"/>
	<rect x="7.4" y="34.3" class="st0" width="70.1" height="86.5"/>
	<rect x="5.7" y="125.3" class="st0" width="69.8" height="32.5"/>
	<line class="st1" x1="6.7" y1="59.4" x2="2" y2="59.2"/>
	<line class="st1" x1="2" y1="59.2" x2="2" y2="128.7"/>
	<line class="st1" x1="2" y1="128.7" x2="5.7" y2="128.7"/>
	<rect x="5.7" y="162.9" class="st2" width="38.7" height="5.1"/>
	<line class="st3" x1="44.4" y1="80.7" x2="77.5" y2="81.1"/>
	<line class="st4" x1="76.5" y1="81.1" x2="76.5" y2="165.4"/>
	<line class="st4" x1="75.5" y1="165.4" x2="47.6" y2="165.4"/>
	<rect x="82.6" y="32" class="st5" width="45" height="81.6"/>
	<rect x="131" y="32.6" class="st6" width="35.9" height="36"/>
	<rect x="169.4" y="32" class="st6" width="50.1" height="53.7"/>
	<text transform="matrix(1 0 0 1 169.4412 38.239)"><tspan x="0" y="0" class="st7 st8">Admission Events</tspan><tspan x="0" y="7.3" class="st7 st8">How to Apply</tspan><tspan x="0" y="14.6" class="st7 st8">Non-Degree Programs</tspan><tspan x="0" y="21.9" class="st7 st8">Contact Us</tspan><tspan x="0" y="29.2" class="st7 st8">International Students</tspan><tspan x="0" y="36.5" class="st7 st8">FAQ</tspan><tspan x="0" y="43.8" class="st7 st8">Accepted Students</tspan></text>
	<rect x="221.5" y="32" class="st6" width="51.9" height="63.7"/>
	<rect x="290.3" y="30.9" class="st6" width="15.3" height="32.9"/>
	<rect x="336" y="30.9" class="st6" width="40.1" height="14.9"/>
	<rect x="405.4" y="28.3" class="st6" width="68.7" height="40.4"/>
	<rect x="533.8" y="28.3" class="st6" width="30.6" height="8.7"/>
	<rect x="568.8" y="27.3" class="st6" width="86.4" height="33.5"/>
	<rect x="173.6" y="33.6" class="st9" width="38.2" height="58.6"/>
	<text transform="matrix(1 0 0 1 222.9387 38.4229)"><tspan x="0" y="0" class="st7 st10">Parsons Student Affairs</tspan><tspan x="0" y="5.8" class="st7 st10">Computer Labs</tspan><tspan x="0" y="11.6" class="st7 st10">Facilities</tspan><tspan x="0" y="23.3" class="st7 st10">Galleries and </tspan><tspan x="0" y="27.6" class="st7 st10">Exhibition Centers</tspan><tspan x="0" y="36.4" class="st7 st10">Libraries</tspan><tspan x="0" y="42.2" class="st7 st10">Housing and Dining</tspan><tspan x="0" y="48" class="st7 st10">Student Services</tspan><tspan x="0" y="53.8" class="st7 st10">New York City</tspan></text>
	<text transform="matrix(1 0 0 1 292.4371 37.0696)"><tspan x="0" y="0" class="st7 st8">2015</tspan><tspan x="0" y="6.1" class="st7 st8">2014</tspan><tspan x="0" y="12.3" class="st7 st8">2013</tspan><tspan x="0" y="18.4" class="st7 st8">2012</tspan><tspan x="0" y="24.5" class="st7 st8">2011</tspan></text>
	<rect x="340.4" y="32.6" class="st9" width="62.6" height="37"/>
	<text transform="matrix(1 0 0 1 340.3965 36.0803)"><tspan x="0" y="0" class="st7 st10">internships</tspan><tspan x="0" y="4.4" class="st7 st10">Alumni profiles</tspan></text>
	<text transform="matrix(1 0 0 1 407.8328 34.3916)"><tspan x="0" y="0" class="st7 st8">External Partnerships</tspan><tspan x="0" y="6.1" class="st7 st8">Research Labs</tspan><tspan x="0" y="12.3" class="st7 st8">Publications</tspan><tspan x="0" y="18.4" class="st7 st8">Interdisciplinary Collaboration</tspan><tspan x="0" y="24.5" class="st7 st8">Projects</tspan><tspan x="0" y="30.7" class="st7 st8">Conferences and Symposia</tspan></text>
	<rect x="535.5" y="30.1" class="st9" width="30.4" height="18.7"/>
	<text transform="matrix(1 0 0 1 535.5428 33.5649)" class="st7 st10">New archives</text>
	<text transform="matrix(1 0 0 1 571.1885 32.6387)"><tspan x="0" y="0" class="st7 st8">Upcoming Events</tspan><tspan x="0" y="6.1" class="st7 st8">The Sheila C. Johnson Design Center</tspan><tspan x="0" y="12.3" class="st7 st8">Parsons 2015 Fashion Benefit</tspan><tspan x="0" y="18.4" class="st7 st8">Parsons Festival</tspan><tspan x="0" y="24.5" class="st7 st8">Past Events</tspan></text>
	<rect x="82.6" y="119.2" class="st5" width="79.8" height="84.7"/>
	<line class="st11" x1="118.5" y1="35.8" x2="124.7" y2="35.8"/>
	<line class="st11" x1="124.7" y1="35.8" x2="124.7" y2="123.3"/>
	<rect x="82.6" y="207.4" class="st12" width="108.4" height="113.7"/>
	<line class="st13" x1="84.8" y1="40.1" x2="79.4" y2="40.1"/>
	<line class="st13" x1="79.4" y1="40.1" x2="79.4" y2="213.1"/>
	<line class="st13" x1="79.4" y1="213.1" x2="84.8" y2="213.1"/>
	<rect x="83.6" y="326.2" class="st6" width="60.6" height="29"/>
</g>
<g id="Layer_1">
	<rect x="15.8" y="15.1" class="st9" width="639.4" height="33.8"/>
	<text transform="matrix(1 0 0 1 15.7644 21.378)" class="st7 st14">About parsons     Academics    Faculty    Admission    Student life     Student work    Career services    Research and Projects    Profiles    News   Exhibitions and Events   </text>
	<rect x="7.4" y="35.8" class="st9" width="70.1" height="85.1"/>
	<text transform="matrix(1 0 0 1 7.3555 39.9761)"><tspan x="0" y="0" class="st7 st15">Message from the Dean</tspan><tspan x="0" y="7" class="st7 st15">Mission and Vision</tspan><tspan x="0" y="14" class="st7 st15">History</tspan><tspan x="0" y="21" class="st7 st15">Schools</tspan><tspan x="0" y="28" class="st7 st15">Accreditation</tspan><tspan x="0" y="35.1" class="st7 st15">Global Learning</tspan><tspan x="0" y="42.1" class="st7 st15">Administrators</tspan><tspan x="0" y="49.1" class="st7 st15">Pre-College and Continuing </tspan><tspan x="0" y="56.1" class="st7 st15">Studies</tspan><tspan x="0" y="63.1" class="st7 st15">Contact Us</tspan><tspan x="0" y="70.1" class="st7 st15">Parsons App</tspan><tspan x="0" y="77.1" class="st7 st15">Sitemap</tspan></text>
	<rect x="7.4" y="126" class="st9" width="68.1" height="31.8"/>
	<text transform="matrix(1 0 0 1 7.3564 129.1309)"><tspan x="0" y="0" class="st7 st16">Art and Design History and Theory</tspan><tspan x="0" y="5.3" class="st7 st16">Art, Media, and Technology</tspan><tspan x="0" y="10.5" class="st7 st16">Constructed Environments</tspan><tspan x="0" y="15.8" class="st7 st16">Design Strategies: cities, services, </tspan><tspan x="0" y="21" class="st7 st16">ecosystems</tspan><tspan x="0" y="26.3" class="st7 st16">Fashion</tspan></text>
	<rect x="6" y="164" class="st9" width="39.4" height="5.3"/>
	<text transform="matrix(1 0 0 1 6.0166 167.1099)" class="st7 st16">Board of Governors</text>
	<rect x="84.8" y="32.9" class="st9" width="42.8" height="80.7"/>
	<text transform="matrix(1 0 0 1 84.7734 36.5327)"><tspan x="0" y="0" class="st7 st8">Undergraduate</tspan><tspan x="0" y="6.1" class="st7 st8">Graduate</tspan><tspan x="0" y="12.3" class="st7 st8">Associate&apos;s </tspan><tspan x="0" y="18.4" class="st7 st8">Degrees</tspan><tspan x="0" y="27.2" class="st7 st8">Online Courses </tspan><tspan x="0" y="31.6" class="st7 st8">and Programs</tspan><tspan x="0" y="38.9" class="st7 st8">Summer Programs</tspan><tspan x="0" y="44.7" class="st7 st8">Pre-College </tspan><tspan x="0" y="50.5" class="st7 st8">Academy</tspan><tspan x="0" y="56.4" class="st7 st8">Continuing </tspan><tspan x="0" y="62.2" class="st7 st8">Education</tspan><tspan x="0" y="68.1" class="st7 st8">Study Abroad</tspan><tspan x="0" y="73.9" class="st7 st8">Advising</tspan></text>
	<rect x="131" y="33.8" class="st9" width="35.9" height="35.8"/>
	<text transform="matrix(1 0 0 1 130.959 37.4463)"><tspan x="0" y="0" class="st7 st8">Full-time Faculty</tspan><tspan x="0" y="7.3" class="st7 st8">Part-time </tspan><tspan x="0" y="14.6" class="st7 st8">Faculty</tspan><tspan x="0" y="21.9" class="st7 st8">Faculty Profiles</tspan><tspan x="0" y="29.2" class="st7 st8">Faculty Affairs</tspan></text>
	<text transform="matrix(1 0 0 1 84.7737 123.2637)"><tspan x="0" y="0" class="st7 st16">First-Year Study</tspan><tspan x="0" y="5.3" class="st7 st16">Architectural Design (BFA)</tspan><tspan x="0" y="10.5" class="st7 st16">Communication Design (BFA)</tspan><tspan x="0" y="15.8" class="st7 st16">Design and Technology (BFA)</tspan><tspan x="0" y="21" class="st7 st16">Environmental Studies (BS)</tspan><tspan x="0" y="26.3" class="st7 st16">Fashion Design (BFA)</tspan><tspan x="0" y="31.6" class="st7 st16">Fine Arts (BFA)</tspan><tspan x="0" y="36.8" class="st7 st16">Illustration (BFA)</tspan><tspan x="0" y="42.1" class="st7 st16">Integrated Design (BFA)</tspan><tspan x="0" y="47.3" class="st7 st16">Interior Design (BFA)</tspan><tspan x="0" y="52.6" class="st7 st16">Photography (BFA)</tspan><tspan x="0" y="57.8" class="st7 st16">Product Design (BFA)</tspan><tspan x="0" y="63.1" class="st7 st16">Strategic Design and Management (BBA)</tspan><tspan x="0" y="68.4" class="st7 st16">Urban Design (BS)</tspan><tspan x="0" y="73.6" class="st7 st16">Art and Design History and Theory</tspan><tspan x="0" y="78.9" class="st7 st16">Minors</tspan></text>
	<text transform="matrix(1 0 0 1 84.7737 213.0662)"><tspan x="0" y="0" class="st7 st8">Architecture (M.Arch)</tspan><tspan x="0" y="6.1" class="st7 st8">Architecture (M.Arch) / Lighting Design (MFA)</tspan><tspan x="0" y="12.3" class="st7 st8">Business of Design (Graduate Certificate)</tspan><tspan x="0" y="18.4" class="st7 st8">Data Visualization (MS)</tspan><tspan x="0" y="24.5" class="st7 st8">Design Studies (MA)</tspan><tspan x="0" y="30.7" class="st7 st8">Design and Technology (MFA)</tspan><tspan x="0" y="36.8" class="st7 st8">Design and Urban Ecologies (MS)</tspan><tspan x="0" y="42.9" class="st7 st8">Fashion Design and Society (MFA)</tspan><tspan x="0" y="49.1" class="st7 st8">Fashion Studies (MA)</tspan><tspan x="0" y="55.2" class="st7 st8">Fine Arts (MFA)</tspan><tspan x="0" y="61.3" class="st7 st8">History of Design and Curatorial Studies (MA)</tspan><tspan x="0" y="67.5" class="st7 st8">Industrial Design (MFA)</tspan><tspan x="0" y="73.6" class="st7 st8">Interior Design (MFA)</tspan><tspan x="0" y="79.8" class="st7 st8">Lighting Design (MFA)</tspan><tspan x="0" y="85.9" class="st7 st8">Photography (MFA)</tspan><tspan x="0" y="92" class="st7 st8">Strategic Design and Management (MS)</tspan><tspan x="0" y="98.2" class="st7 st8">Theories of Urban Practice (MA)</tspan><tspan x="0" y="104.3" class="st7 st8">Transdisciplinary Design (MFA)</tspan></text>
	<text transform="matrix(1 0 0 1 86.2343 331.7889)"><tspan x="0" y="0" class="st7 st8">Fashion Design (AAS)</tspan><tspan x="0" y="6.1" class="st7 st8">Fashion Marketing (AAS)</tspan><tspan x="0" y="12.3" class="st7 st8">Graphic Design (AAS)</tspan><tspan x="0" y="18.4" class="st7 st8">Interior Design (AAS)</tspan></text>
	<line class="st17" x1="111.5" y1="47.4" x2="131" y2="47.4"/>
	<line class="st17" x1="131" y1="47.4" x2="131" y2="115.6"/>
	<line class="st17" x1="131" y1="115.6" x2="166.8" y2="115.6"/>
	<line class="st17" x1="166.8" y1="115.6" x2="166.8" y2="205.6"/>
	<line class="st17" x1="166.8" y1="205.6" x2="194.5" y2="205.6"/>
	<line class="st17" x1="194.5" y1="205.6" x2="194.5" y2="329"/>
	<line class="st17" x1="194.5" y1="329" x2="147.1" y2="329"/>
</g>
</svg>
